# xmcd
#
# Track frame offsets:
#	150
#	11368
#	23363
#	38242
#	51471
#	61599
#	85670
#	98011
#	119862
#	130973
#	141163
#	154958
#	165998
#	178318
#	190037
#	202526
#	214376
#	229805
#
# Disc length: 3270 seconds
#
# Revision: 0
# Processed by: cddbd v1.5.2PL0 Copyright (c) Steve Scherf et al.
# Submitted via: dBpowerAMP V4.0
#
DISCID=ec0cc412
DTITLE=ALEXIS HERVE - LE ROI DES FLONS FLONS
DYEAR=1900
DGENRE=Accordeon
TTITLE0=LE ROI DES FLONS FLONS  MARCHE
TTITLE1=DROIT DANS LES COEURS       VALSE
TTITLE2=LA ROMANTICA                           PASO-DOBLE
TTITLE3=CHARLENE POLKA                           POLKA PIQUES
TTITLE4=FANDANGO POUR TROIS FILLES  FANDANGO
TTITLE5=UN POEME POUR QUE TU REVIENNES  BOLERO
TTITLE6=MARIAGE DANS LES ILES   SAMBA-BIGUINE
TTITLE7=VALSES DES AMANTS  VALSE
TTITLE8=EL PASO DE MARIO  PASO-DOBLE
TTITLE9=UNE VALSE POUR LA VIE
TTITLE10=ON DANSE CAJIN    COUNTRY
TTITLE11=LA BOURREE DE MA BERGERE  BOURREE
TTITLE12=FAIS LUI DANSER LE CHA-CHA-CHE  CHA-CHA-CHA
TTITLE13=POUR TOI PAYS BASQUE   FANDANGO
TTITLE14=COMME UN AIR DES ANNEES 30   CHARLESTON
TTITLE15=LA JAVA- Z Y- VA JAVA
TTITLE16=ELLE  TE LAISSERA PLEURER BOLERO
TTITLE17=LES MIMOSAS D OLERON  VALSE
EXTD=
EXTT0=
EXTT1=
EXTT2=
EXTT3=
EXTT4=
EXTT5=
EXTT6=
EXTT7=
EXTT8=
EXTT9=
EXTT10=
EXTT11=
EXTT12=
EXTT13=
EXTT14=
EXTT15=
EXTT16=
EXTT17=
PLAYORDER=
